<svg xmlns="http://www.w3.org/2000/svg" data-name="Layer 1" viewBox="0 0 512 512" id="toll"><path fill="#8b8893" d="M314.10016,140.46l-41.30029,47.51h-.00977L70.53034,420.6a10.00515,10.00515,0,0,1-14.11036.99L21.33991,391.08,239.0401,140.7l32.42969-37.3a10.00513,10.00513,0,0,1,14.11035-.99l27.54,23.94A9.99506,9.99506,0,0,1,314.10016,140.46Z"></path><path fill="#fddd5a" d="M314.10016,140.46l-41.30029,47.51h-.00977l-33.75-47.27,32.42969-37.3a10.00513,10.00513,0,0,1,14.11035-.99l27.54,23.94A9.99506,9.99506,0,0,1,314.10016,140.46Z"></path><polygon fill="#fddd5a" points="194.533 277.982 160.919 230.546 200.032 185.561 234.404 232.126 194.533 277.982"></polygon><polygon fill="#fddd5a" points="113.871 370.754 80.122 323.472 119.131 278.607 153.169 325.556 113.871 370.754"></polygon><path fill="#fddd5a" d="M37.5,385.5h1.519a30,30,0,0,1,30,30v89a0,0,0,0,1,0,0H7.5a0,0,0,0,1,0,0v-89A30,30,0,0,1,37.5,385.5Z"></path><path fill="#fed030" d="M39.01911,385.5h-1.519a30.0699,30.0699,0,0,0-6.74072.76978A30.00477,30.00477,0,0,1,54.01911,415.5v89h15v-89A30.00012,30.00012,0,0,0,39.01911,385.5Z"></path><rect width="35" height="30" x="451.797" y="320.515" fill="#e4222e" rx="11"></rect><rect width="35" height="30" x="197.005" y="320.722" fill="#e4222e" rx="11"></rect><path fill="#c0232c" d="M475.79694 320.51453H466.4278a11 11 0 0 1 11 11v8a11 11 0 0 1-11 11h9.36914a11 11 0 0 0 11-11v-8A11 11 0 0 0 475.79694 320.51453zM221.00474 320.51453H211.6356a11 11 0 0 1 11 11v8a11 11 0 0 1-11 11h9.36914a11 11 0 0 0 11-11v-8A11 11 0 0 0 221.00474 320.51453z"></path><path fill="#787681" d="M416.90237,450.96091h40.332a0,0,0,0,1,0,0v40.03552A13.50357,13.50357,0,0,1,443.73082,504.5H430.40594a13.50357,13.50357,0,0,1-13.50357-13.50357V450.96091A0,0,0,0,1,416.90237,450.96091Z"></path><path fill="#57565c" d="M442.23444,450.96094v40.03552a13.4931,13.4931,0,0,1-12.666,13.46124c.27832.01715.55469.0423.8374.0423H443.731a13.50364,13.50364,0,0,0,13.50342-13.50354V450.96094Z"></path><path fill="#787681" d="M226.76574,450.96091h40.332a0,0,0,0,1,0,0v40.03552A13.50357,13.50357,0,0,1,253.59418,504.5H240.2693a13.50357,13.50357,0,0,1-13.50357-13.50357V450.96091A0,0,0,0,1,226.76574,450.96091Z"></path><path fill="#57565c" d="M252.09772,450.96094v40.03552a13.49274,13.49274,0,0,1-12.666,13.46124c.27832.01715.55469.0423.83741.0423H253.5943a13.50364,13.50364,0,0,0,13.50342-13.50354V450.96094Z"></path><path fill="#eb304a" d="M467.8902,377.29V449.6a17.28467,17.28467,0,0,1-17.28027,17.28H233.3902a17.28466,17.28466,0,0,1-17.28027-17.28V377.29A40.18483,40.18483,0,0,1,226.94,349.87a40.46137,40.46137,0,0,0,8.14991-13.01l18.86035-49.03a17.26854,17.26854,0,0,1,16.12988-11.08H413.92a17.26854,17.26854,0,0,1,16.12989,11.08l18.86035,49.03a40.77071,40.77071,0,0,0,3.44971,6.9c.24023.38.48.76.74023,1.13a40.24436,40.24436,0,0,0,3.96,4.98A40.13512,40.13512,0,0,1,467.8902,377.29Z"></path><path fill="#e4222e" d="M457.06012,349.87a40.24436,40.24436,0,0,1-3.96-4.98c-.26025-.37-.5-.75-.74023-1.13a40.77071,40.77071,0,0,1-3.44971-6.9l-18.86035-49.03A17.26854,17.26854,0,0,0,413.92,276.75h-30a17.26854,17.26854,0,0,1,16.12989,11.08l18.86035,49.03a40.77071,40.77071,0,0,0,3.44971,6.9c.24023.38.48.76.74023,1.13a40.24436,40.24436,0,0,0,3.96,4.98,40.13512,40.13512,0,0,1,10.83008,27.42V449.6a17.28467,17.28467,0,0,1-17.28027,17.28h30A17.28467,17.28467,0,0,0,467.8902,449.6V377.29A40.13512,40.13512,0,0,0,457.06012,349.87Z"></path><path fill="#787681" d="M418.919,466.88H264.505l20.26331-22.32239a20,20,0,0,1,14.80863-6.55736h84.71383A20,20,0,0,1,399.247,444.722Z"></path><path fill="#57565c" d="M399.24713,444.72205a20.00057,20.00057,0,0,0-14.95654-6.72181h-30a20.00057,20.00057,0,0,1,14.95654,6.72181L388.919,466.88h30Z"></path><circle cx="422.068" cy="394.335" r="15" fill="#fddd5a"></circle><path fill="#fed030" d="M422.06842,379.335a14.94,14.94,0,0,0-5.01514.87732,14.98005,14.98005,0,0,1,0,28.24536,14.99417,14.99417,0,1,0,5.01514-29.12268Z"></path><circle cx="261.932" cy="394.335" r="15" fill="#fddd5a"></circle><path fill="#fed030" d="M262.10532,379.335a14.93992,14.93992,0,0,0-5.01514.87732,14.98006,14.98006,0,0,1,0,28.24536,14.99417,14.99417,0,1,0,5.01514-29.12268Z"></path><path fill="#52bbe9" d="M453.10016,344.89H230.9a40.06694,40.06694,0,0,0,4.19-8.03l18.86035-49.03a17.26854,17.26854,0,0,1,16.12988-11.08H413.92a17.26854,17.26854,0,0,1,16.12989,11.08l18.86035,49.03a40.77071,40.77071,0,0,0,3.44971,6.9C452.60016,344.14,452.83991,344.52,453.10016,344.89Z"></path><path fill="#1cabe1" d="M452.35993,343.76a40.77071,40.77071,0,0,1-3.44971-6.9l-18.86035-49.03A17.26854,17.26854,0,0,0,413.92,276.75h-30a17.26854,17.26854,0,0,1,16.12989,11.08l18.86035,49.03a40.77071,40.77071,0,0,0,3.44971,6.9c.24023.38.48.76.74023,1.13h30C452.83991,344.52,452.60016,344.14,452.35993,343.76Z"></path><path fill="#787681" d="M504.50006,512h-497a7.5,7.5,0,1,1,0-15h497a7.5,7.5,0,0,1,0,15Z"></path><circle cx="38.26" cy="415.5" r="7.5" fill="#fff"></circle></svg>